<svg xmlns="http://www.w3.org/2000/svg" width="327" height="344" fill="none"><path fill="#2D2641" d="M0 0h327v344H0z"/><mask id="a" width="327" height="344" x="0" y="0" maskUnits="userSpaceOnUse" style="mask-type:luminance"><path fill="#fff" d="M0 0h327v344H0z"/></mask><g stroke="#9E96C6" clip-rule="evenodd" mask="url(#a)"><path d="M380.233-90.334c-50.722-15.881-102.876-42.369-156.271 6.012-53.395 48.382-86.964 90.763-65.286 145.6 21.678 54.836 110.165 20.68 135.875 69.691 25.71 49.011-30.781 93.492-6.426 137.111 24.354 43.62 43.081 71.576 121.35 43.841 78.268-27.734 71.051-98.303 130.571-139.628 59.519-41.324 123.915-103.188 35.541-213.576-88.373-110.388-144.632-33.17-195.354-49.05Z"/><path d="M386.714-64.418c-41.272-12.887-83.711-34.382-127.158 4.879-43.448 39.26-70.763 73.653-53.124 118.153 17.64 44.499 89.642 16.782 110.563 56.554 20.92 39.772-25.047 75.868-5.23 111.265 19.818 35.397 35.056 58.083 98.743 35.577 63.687-22.507 57.815-79.773 106.246-113.308 48.431-33.534 100.831-83.736 28.921-173.316-71.91-89.579-117.688-26.917-158.961-39.804Z"/><path d="M398.526-47.655c-33.452-10.515-67.85-28.052-103.065 3.98-35.216 32.032-57.355 60.091-43.058 96.397 14.297 36.305 72.657 13.692 89.614 46.14 16.956 32.449-20.301 61.898-4.239 90.777 16.063 28.879 28.414 47.388 80.034 29.026 51.62-18.362 46.861-65.084 86.115-92.443 39.255-27.36 81.726-68.318 23.441-141.403-58.285-73.084-95.389-21.96-128.842-32.474Z"/><path d="M410.692-27.494c-27.045-8.434-54.853-22.5-83.323 3.192C298.9 1.39 281.001 23.896 292.56 53.016c11.558 29.12 58.738 10.983 72.447 37.009 13.708 26.026-16.412 49.647-3.427 72.811 12.986 23.163 22.971 38.009 64.703 23.281 41.732-14.728 37.884-52.203 69.619-74.147 31.735-21.945 66.071-54.797 18.951-113.417-47.12-58.62-77.117-17.614-104.161-26.047Z"/><path d="M413.21-13.586c-22.048-6.9-44.719-18.409-67.929 2.612-23.21 21.02-37.802 39.435-28.379 63.26 9.423 23.826 47.887 8.986 59.063 30.28 11.176 21.294-13.38 40.621-2.793 59.572 10.587 18.952 18.727 31.099 52.749 19.048 34.023-12.05 30.886-42.711 56.758-60.665 25.873-17.955 53.865-44.834 15.45-92.796-38.415-47.962-62.87-14.411-84.919-21.311Z"/></g></svg>